<svg width="67" height="67" viewBox="0 0 67 67" fill="none" xmlns="http://www.w3.org/2000/svg">
<circle cx="33.4524" cy="33.4524" r="33.4524" fill="#F8C514"/>
<path d="M15.2561 22.1233C15.2561 21.324 15.7813 20.6759 16.4292 20.6759H50.7851C51.433 20.6759 51.9583 21.324 51.9583 22.1233C51.9583 22.9227 51.433 23.5708 50.7851 23.5708H50.7307C49.9824 23.5708 49.4082 24.3897 49.516 25.3034L51.8305 44.9288C51.8978 45.5003 51.5387 46.0125 51.0707 46.0125C50.7124 46.0125 50.4017 45.7067 50.3221 45.2757L46.7042 25.6844C46.4758 24.4479 45.5846 23.5708 44.5568 23.5708H22.6575C21.6297 23.5708 20.7385 24.4479 20.5102 25.6844L16.8923 45.2757C16.8127 45.7067 16.502 46.0125 16.1437 46.0125C15.6756 46.0125 15.3165 45.5003 15.3839 44.9288L17.6984 25.3034C17.8061 24.3897 17.2319 23.5708 16.4836 23.5708H16.4292C15.7813 23.5708 15.2561 22.9227 15.2561 22.1233Z" fill="#222222"/>
<path d="M11.0369 21.704C11.0369 20.5135 11.8191 19.5484 12.784 19.5484H54.3389C55.3038 19.5484 56.086 20.5135 56.086 21.704V22.0172C56.086 23.0347 55.4175 23.8596 54.5928 23.8596C53.6726 23.8596 52.9713 24.8766 53.1189 25.9973L55.9084 47.1908C56.0015 47.8983 55.5588 48.5404 54.9778 48.5404C54.5466 48.5404 54.1704 48.1795 54.0641 47.6639L49.58 25.9072C49.3317 24.7027 48.4528 23.8596 47.4455 23.8596H19.6774C18.6701 23.8596 17.7912 24.7028 17.5429 25.9072L13.0588 47.6639C12.9525 48.1795 12.5763 48.5404 12.1451 48.5404C11.5641 48.5404 11.1214 47.8983 11.2145 47.1908L14.0041 25.9972C14.1516 24.8766 13.4503 23.8596 12.5301 23.8596C11.7054 23.8596 11.0369 23.0347 11.0369 22.0172V21.704Z" fill="#222222"/>
</svg>
